<svg xmlns="http://www.w3.org/2000/svg" width="55" height="60" viewBox="0 0 55 60" fill="none">
<path fill-rule="evenodd" clip-rule="evenodd" d="M25.8097 25.6995L26.531 25.7703L26.5423 25.772C26.2862 25.7331 26.0445 25.6966 25.8097 25.6995ZM25.4119 30.1191C24.9167 29.912 24.5113 29.2095 24.5113 29.2095C24.5113 29.2095 25.5833 29.1963 27.4977 29.1963C29.4121 29.1963 30.4841 29.2095 30.4841 29.2095C30.4841 29.2095 30.0788 29.912 29.5835 30.1191C29.0883 30.3263 28.1495 30.4957 27.4977 30.4957C26.8459 30.4957 25.9071 30.3263 25.4119 30.1191ZM10.2284 59.0827V48.1676V37.2526H27.4977H44.767V48.1676V59.0827H27.4977H10.2284Z" fill="black"/>
<path fill-rule="evenodd" clip-rule="evenodd" d="M25.6505 0.863747C24.9203 0.973677 23.7299 1.26085 23.0051 1.5015C22.2805 1.74241 20.9582 2.41134 20.067 2.98776C19.1757 3.56418 17.8271 4.67075 17.0701 5.44676C16.3129 6.22276 15.2396 7.52763 14.6846 8.34652C14.1294 9.16514 13.3179 10.5446 12.8811 11.4116C12.4443 12.2785 11.6686 14.191 11.1573 15.6611C10.6457 17.1316 9.99387 19.4811 9.70847 20.8824C9.36465 22.5717 9.19247 24.4243 9.19819 26.3784C9.20442 28.5583 9.32933 29.6649 9.67783 30.6256C9.937 31.3403 10.2229 32.1005 10.313 32.3149C10.4353 32.6059 9.95648 32.9511 8.42197 33.6772C7.15573 34.2765 5.76509 35.2076 4.79827 36.1032C3.93558 36.9026 2.87449 38.1778 2.44029 38.9372C2.00635 39.6965 1.41894 41.2257 1.13536 42.3351C0.700117 44.0381 0.619873 45.217 0.619873 49.8985V55.4443H4.51209H8.40432L8.47235 45.5039L8.54039 35.5634H13.2847H18.0287L17.3098 35.0509C16.9143 34.7689 15.9218 33.9064 15.1043 33.1338C14.2868 32.3609 13.3226 31.1361 12.9619 30.4115C12.563 29.6108 12.3059 28.6516 12.3059 27.9655C12.3059 27.335 12.5482 26.3534 12.8546 25.7425C13.1564 25.1408 13.6441 24.3851 13.9386 24.0636C14.233 23.7422 14.5517 23.4789 14.6467 23.4789C14.7418 23.4789 14.955 23.7767 15.1207 24.1408C15.2866 24.5049 15.4222 25.1234 15.4222 25.5153C15.4222 25.907 15.6302 26.6326 15.8847 27.1274C16.1389 27.6219 17.3509 29.3156 18.5779 30.891C20.3176 33.1244 21.1164 33.9256 22.2055 34.5293C23.5811 35.2918 23.6613 35.3035 27.4977 35.3035C31.3356 35.3035 31.4136 35.2921 32.7925 34.5278C33.9045 33.9116 34.6916 33.1106 36.6234 30.6295C37.9603 28.9122 39.1614 27.1562 39.292 26.7274C39.4226 26.2986 39.5992 25.5296 39.6847 25.0184C39.7698 24.5073 39.9911 23.8815 40.1762 23.6281C40.4824 23.2091 40.605 23.3009 41.5204 24.631C42.3382 25.8191 42.5482 26.3776 42.6365 27.5991C42.7254 28.8288 42.6267 29.3374 42.0959 30.3845C41.7388 31.0888 40.7621 32.3118 39.9256 33.1018C39.0892 33.8918 38.0811 34.7689 37.6856 35.0509L36.9667 35.5634H41.7108H46.455L46.523 45.5039L46.5911 55.4443H50.4833H54.3755V49.8085C54.3755 45.5002 54.2768 43.771 53.9564 42.4669C53.726 41.5287 53.1729 40.0593 52.7275 39.2017C52.2822 38.3441 51.3177 37.0486 50.5841 36.3228C49.8504 35.5969 48.7379 34.7076 48.1123 34.3461C47.4865 33.9849 46.4137 33.4789 45.7284 33.2219C44.765 32.8604 44.5237 32.6605 44.6647 32.3398C44.7647 32.1116 45.0696 31.2946 45.3417 30.5238C45.7102 29.4809 45.8369 28.4141 45.8369 26.3529C45.8369 24.5811 45.6445 22.6384 45.3025 20.9591C45.0085 19.5154 44.3497 17.1316 43.8381 15.6611C43.3268 14.191 42.5511 12.2785 42.1143 11.4116C41.6775 10.5446 40.866 9.16514 40.3108 8.34652C39.7558 7.52763 38.6825 6.22276 37.9253 5.44676C37.1683 4.67075 35.8028 3.55326 34.8908 2.96333C33.9788 2.3734 32.4679 1.6686 31.5338 1.39702C30.5994 1.12545 29.1922 0.849454 28.4066 0.783704C27.6211 0.717954 26.3808 0.754077 25.6505 0.863747ZM19.5772 21.0607C19.5772 21.7489 19.7751 22.2278 20.275 22.7499C20.9013 23.4043 21.148 23.4789 22.6851 23.4789H24.3978L25.9401 21.9191L27.4826 20.3593L29.0553 21.9191L30.628 23.4789H32.3253C33.8461 23.4789 34.0951 23.403 34.7204 22.7499C35.2203 22.2278 35.4182 21.7489 35.4182 21.0607C35.4182 20.5326 35.3972 20.1004 35.3972 20.1004C35.3972 20.1004 36.2549 20.305 36.6941 20.5552C37.1914 20.8385 37.4931 21.2185 37.4942 21.5631C37.495 21.8671 37.3334 22.2507 37.135 22.4152C36.9369 22.58 36.6915 23.3838 36.5902 24.2014C36.4359 25.4444 36.1879 25.9738 35.0775 27.433C34.2496 28.5209 33.7302 29.5362 33.7302 29.5362C33.7302 29.5362 33.4706 28.4282 33.3446 28.0788C33.2364 27.7785 33.1675 27.276 32.9556 26.8662C32.7234 26.4163 32.2342 26.0174 31.7221 25.8597C31.3471 25.7442 30.9747 25.7045 29.4454 25.6995C28.926 25.7194 28.0602 25.8597 27.4411 25.8597C27.1195 25.8597 26.8244 25.8149 26.5462 25.7726L26.5423 25.772L26.531 25.7703L25.8097 25.6995C23.8621 25.6995 23.1299 25.7826 22.5174 26.3958C22.0216 26.8919 21.7674 27.4676 21.6674 28.32L21.5249 29.5362L20.0607 27.6121C18.8443 26.0138 18.5639 25.4457 18.4052 24.2585C18.3003 23.4724 18.0533 22.5984 17.857 22.3165C17.6604 22.0347 17.4997 21.6174 17.4997 21.3892C17.4997 21.161 17.8796 20.7852 18.3437 20.5539C18.8077 20.3229 19.5772 20.112 19.5772 20.112V21.0607ZM31.7179 29.6784C31.4193 28.959 30.9318 28.2152 30.6347 28.0253C30.3377 27.8353 29.335 27.6212 28.4066 27.5494C27.4782 27.478 26.2512 27.5016 25.6799 27.6022C25.1086 27.7028 24.483 27.8831 24.2895 28.0029C24.096 28.123 23.7187 28.7036 23.4512 29.2932C23.1835 29.8832 22.962 30.5763 22.9589 30.8333C22.9552 31.134 23.3468 31.4796 24.0568 31.8021C24.8741 32.1732 25.7523 32.305 27.4411 32.3092C28.907 32.3128 30.0595 32.1738 30.6672 31.9196C31.1874 31.7021 31.7587 31.4029 31.9368 31.2551C32.1921 31.043 32.1456 30.7083 31.7179 29.6784Z" fill="black"/>
</svg>